<svg xmlns="http://www.w3.org/2000/svg" viewBox="0 0 512 512" role="img" aria-label="BodyPilot">
  <defs>
    <linearGradient id="bg" x1="86" y1="42" x2="438" y2="468" gradientUnits="userSpaceOnUse">
      <stop stop-color="#06B6D4"/>
      <stop offset="0.52" stop-color="#14B8A6"/>
      <stop offset="1" stop-color="#84CC16"/>
    </linearGradient>
    <linearGradient id="line" x1="116" y1="126" x2="392" y2="382" gradientUnits="userSpaceOnUse">
      <stop stop-color="#FFFFFF"/>
      <stop offset="1" stop-color="#ECFCCB"/>
    </linearGradient>
  </defs>
  <rect width="512" height="512" rx="116" fill="url(#bg)"/>
  <rect x="58" y="58" width="396" height="396" rx="92" fill="none" stroke="#FFFFFF" stroke-opacity=".36" stroke-width="8"/>
  <path d="M140 354V150h124c52 0 86 30 86 76 0 27-13 50-36 64 29 13 47 39 47 72 0 52-39 86-98 86H140" fill="none" stroke="url(#line)" stroke-width="34" stroke-linecap="round" stroke-linejoin="round"/>
  <path d="M178 244h78c28 0 45-14 45-38s-17-38-45-38h-78" fill="none" stroke="#F8FAFC" stroke-width="28" stroke-linecap="round"/>
  <path d="M178 338h90c31 0 49-15 49-42s-18-42-49-42h-90" fill="none" stroke="#F8FAFC" stroke-width="28" stroke-linecap="round"/>
  <circle cx="379" cy="132" r="24" fill="#F8FAFC" opacity=".95"/>
</svg>
